<?xml version="1.0" standalone="no"?>
<!DOCTYPE svg PUBLIC "-//W3C//DTD SVG 20010904//EN"
 "http://www.w3.org/TR/2001/REC-SVG-20010904/DTD/svg10.dtd">
<svg version="1.0" xmlns="http://www.w3.org/2000/svg"
 width="9754.000000pt" height="1442.000000pt" viewBox="0 0 9754.000000 1442.000000"
 preserveAspectRatio="xMidYMid meet">

<g transform="translate(0.000000,1442.000000) scale(0.100000,-0.100000)"
fill="#000000" stroke="none">
<path d="M8815 14219 c-1013 -30 -1867 -198 -2289 -449 -496 -296 -798 -736
-921 -1344 -61 -303 -75 -540 -75 -1301 0 -1156 40 -1631 170 -2027 232 -705
721 -978 2095 -1172 379 -53 1310 -163 1579 -186 131 -11 282 -27 335 -35 392
-59 600 -161 679 -333 96 -207 122 -474 122 -1257 -1 -961 -22 -1191 -129
-1421 -70 -148 -171 -269 -316 -379 -184 -139 -427 -199 -810 -199 -513 1
-806 99 -1008 340 -70 82 -138 217 -166 329 -53 207 -54 209 -58 1138 l-4 867
-1150 0 -1149 0 0 -1425 0 -1425 120 0 120 0 2 364 3 363 105 -84 c473 -381
1009 -610 1610 -687 284 -37 405 -41 1255 -41 850 0 959 3 1290 41 1010 113
1655 448 1933 1001 285 566 433 2064 327 3308 -45 525 -118 873 -230 1095
-260 515 -925 878 -1930 1054 -203 35 -415 61 -890 106 -511 49 -654 65 -810
90 -479 77 -762 185 -936 359 -111 111 -168 235 -217 476 -58 281 -77 515 -77
930 0 621 46 858 212 1114 57 87 226 251 326 316 156 101 340 176 507 206 112
21 464 17 615 -5 219 -33 410 -90 530 -157 218 -123 370 -373 435 -716 39
-208 42 -272 47 -885 l5 -608 1119 0 1119 0 0 1260 0 1260 -120 0 -120 0 0
-375 c0 -206 -3 -375 -6 -375 -4 0 -41 33 -83 73 -141 134 -341 285 -524 396
-316 190 -829 316 -1537 376 -162 14 -742 37 -825 33 -16 -1 -142 -5 -280 -9z"/>
<path d="M47435 14220 c-784 -24 -1529 -138 -1980 -302 -528 -193 -936 -593
-1128 -1109 -148 -396 -187 -739 -187 -1659 1 -1142 44 -1659 175 -2055 130
-397 337 -638 704 -820 303 -151 713 -253 1391 -349 300 -43 1389 -172 1520
-181 167 -11 433 -43 540 -65 269 -56 441 -148 517 -278 57 -96 104 -319 123
-577 13 -181 13 -1340 0 -1558 -30 -492 -139 -732 -431 -950 -169 -127 -375
-186 -711 -203 -232 -11 -558 25 -727 82 -143 48 -282 142 -379 257 -65 76
-145 235 -172 342 -52 206 -53 232 -57 1143 l-4 852 -1150 0 -1149 0 0 -1425
0 -1425 120 0 120 0 2 367 3 366 49 -42 c80 -69 238 -186 343 -254 467 -302
940 -454 1588 -509 211 -18 1767 -18 1990 0 660 52 1103 154 1491 342 298 144
541 356 687 597 248 411 407 1409 407 2553 0 913 -101 1641 -272 1960 -277
518 -962 878 -1988 1044 -211 35 -329 48 -870 101 -533 52 -733 76 -911 111
-379 73 -633 180 -784 329 -85 83 -115 131 -161 261 -140 391 -185 1274 -94
1825 61 368 276 651 635 834 216 110 352 139 650 139 296 0 534 -39 751 -123
273 -106 447 -334 534 -703 48 -205 53 -278 57 -935 l5 -623 1119 0 1119 0 0
1260 0 1260 -120 0 -120 0 -2 -374 -3 -375 -90 81 c-214 193 -451 361 -630
449 -501 244 -1444 371 -2520 339z"/>
<path d="M69270 12150 c0 -1100 -3 -2000 -6 -2000 -4 0 -44 35 -90 79 -404
383 -896 623 -1414 691 -109 15 -398 15 -520 0 -330 -40 -707 -169 -947 -325
-239 -156 -402 -340 -529 -600 -115 -236 -174 -467 -215 -840 -17 -154 -25
-2856 -9 -3149 41 -786 228 -1353 562 -1702 182 -190 375 -297 673 -374 225
-58 369 -74 685 -74 298 -1 440 11 665 55 410 81 682 227 1033 555 l112 105 0
-295 0 -296 1545 0 1546 0 -3 118 -3 117 -262 3 -263 2 0 4840 0 4840 263 2
262 3 3 123 3 122 -1546 0 -1545 0 0 -2000z m-628 -1951 c79 -17 164 -66 244
-142 153 -145 256 -342 324 -620 62 -251 60 -186 60 -2045 0 -1127 -4 -1726
-11 -1782 -35 -287 -127 -559 -252 -745 -61 -91 -185 -208 -259 -244 -146 -72
-360 -61 -470 23 -112 86 -179 248 -209 511 -14 129 -14 4344 1 4480 36 324
138 503 323 560 52 17 179 19 249 4z"/>
<path d="M74625 14045 c-277 -45 -481 -150 -666 -342 -200 -209 -324 -497
-360 -842 -32 -304 72 -666 266 -922 116 -155 310 -313 478 -389 282 -127 715
-144 1029 -40 375 125 636 397 769 801 102 311 109 574 23 851 -37 119 -124
289 -198 388 -192 255 -439 408 -778 481 -126 27 -434 35 -563 14z"/>
<path d="M24475 10929 c-383 -36 -739 -149 -986 -312 -133 -88 -242 -180 -411
-346 l-158 -154 -2 299 -3 299 -1535 0 -1535 0 -3 -117 -3 -118 258 -2 258 -3
3 -3127 2 -3128 -257 -2 -258 -3 -3 -117 -3 -118 1541 0 1540 0 3 2658 3 2657
21 110 c58 293 150 501 282 633 175 175 378 221 566 128 173 -85 248 -252 274
-611 7 -92 11 -1066 11 -2857 l0 -2718 1545 0 1546 0 -3 118 -3 117 -263 3
-263 2 1 2483 c1 1763 -1 2515 -9 2597 -39 402 -134 707 -297 951 -64 97 -189
228 -289 302 -94 70 -337 192 -484 242 -345 118 -738 166 -1086 134z"/>
<path d="M81940 10929 c-291 -25 -623 -114 -848 -228 -159 -80 -345 -225 -569
-445 l-143 -139 0 301 0 302 -1535 0 -1535 0 0 -120 0 -120 255 0 255 0 0
-3130 0 -3130 -255 0 -255 0 0 -120 0 -120 1535 0 1535 0 2 2643 3 2642 22
120 c54 296 137 490 271 635 170 186 377 241 567 151 156 -72 226 -189 272
-451 15 -87 17 -329 20 -2917 l3 -2823 1545 0 1545 0 0 120 0 120 -260 0 -259
0 -4 2518 c-3 2765 1 2582 -63 2891 -98 477 -320 811 -671 1010 -394 223 -936
333 -1433 290z"/>
<path d="M15865 10919 c-656 -45 -1222 -170 -1583 -349 -408 -202 -708 -483
-878 -822 -125 -248 -187 -500 -214 -868 -13 -180 -13 -3066 0 -3220 48 -555
267 -937 728 -1267 402 -288 1159 -481 2087 -532 690 -39 1384 28 1733 165
739 291 1260 954 1423 1809 10 55 19 103 19 107 0 5 -67 8 -149 8 l-150 0 -11
-57 c-129 -640 -517 -1209 -1018 -1491 -276 -156 -473 -201 -816 -189 -309 11
-557 65 -748 164 -69 35 -103 61 -170 131 -213 221 -324 472 -374 853 -15 107
-18 266 -21 1142 l-4 1017 1696 0 1697 0 -5 643 c-5 672 -11 794 -57 1062
-128 758 -484 1227 -1105 1460 -287 107 -616 177 -1045 220 -185 19 -839 28
-1035 14z m497 -179 c239 -35 367 -191 422 -520 30 -181 36 -396 36 -1397 l0
-1003 -550 0 -550 0 0 974 c0 589 4 1035 11 1128 26 382 94 578 249 722 94 87
222 119 382 96z"/>
<path d="M36755 10923 c-273 -22 -407 -40 -610 -79 -373 -72 -727 -190 -1040
-346 -264 -132 -404 -226 -696 -467 l-29 -24 0 357 0 357 -122 -3 -123 -3 -3
-1158 -2 -1157 987 2 988 3 5 915 c6 1003 3 958 66 1083 34 67 144 174 214
209 204 102 618 103 837 3 134 -61 216 -176 269 -375 51 -192 66 -548 62
-1480 l-3 -705 -795 -6 c-776 -6 -921 -11 -1210 -45 -711 -82 -1178 -313
-1445 -714 -153 -230 -269 -588 -320 -990 -35 -273 -30 -676 11 -894 36 -191
145 -458 256 -628 216 -331 558 -589 1018 -768 736 -286 1591 -198 2377 243
56 32 104 57 107 57 3 0 6 -74 6 -165 l0 -165 1525 0 1526 0 -3 117 -3 118
-247 3 -248 2 0 2158 c0 2147 -4 2471 -35 2720 -83 675 -383 1081 -1045 1412
-465 233 -938 358 -1545 410 -108 9 -632 11 -730 3z m728 -3129 l77 -7 0
-1106 c0 -1101 -6 -1344 -35 -1559 -39 -282 -123 -499 -238 -615 -70 -71 -103
-89 -213 -117 -148 -38 -326 -23 -437 37 -148 81 -258 322 -302 667 -25 199
-32 454 -29 1176 2 541 5 688 18 786 19 148 55 275 104 369 49 96 173 219 263
263 160 77 535 127 792 106z"/>
<path d="M54539 10920 c-385 -17 -629 -48 -925 -120 -385 -93 -680 -220 -938
-403 -515 -366 -778 -767 -860 -1313 -34 -225 -37 -409 -33 -1844 4 -1524 3
-1495 57 -1762 46 -221 144 -454 268 -628 86 -122 288 -324 420 -420 218 -160
411 -260 655 -341 282 -93 586 -153 991 -195 204 -21 830 -30 1063 -15 849 55
1502 231 1892 509 439 313 720 811 835 1485 59 342 61 389 61 1637 0 864 -3
1177 -13 1275 -64 643 -222 1049 -553 1425 -259 293 -638 481 -1209 599 -475
97 -1083 137 -1711 111z m546 -256 c97 -24 142 -51 200 -122 129 -155 173
-300 194 -632 15 -235 17 -5139 2 -5255 -18 -136 -39 -211 -87 -312 -60 -126
-124 -191 -217 -222 -125 -42 -335 -45 -474 -7 -209 57 -319 211 -373 524 -39
227 -42 403 -37 2832 4 2377 5 2444 43 2670 45 277 173 464 352 516 117 34
275 37 397 8z"/>
<path d="M88115 10923 c-333 -9 -604 -37 -860 -88 -614 -123 -1055 -347 -1441
-730 -275 -273 -438 -589 -503 -973 -40 -235 -43 -371 -38 -1887 4 -1565 3
-1527 57 -1780 101 -461 354 -815 793 -1109 253 -169 476 -261 847 -350 392
-94 800 -136 1325 -136 684 0 1262 79 1745 240 362 120 624 277 835 502 367
390 548 868 626 1648 16 162 24 1992 10 2294 -18 397 -61 663 -147 927 -57
174 -177 416 -271 549 -94 132 -323 360 -437 435 -506 330 -1400 491 -2541
458z m434 -254 c76 -13 157 -52 198 -96 62 -67 129 -178 157 -262 35 -106 53
-233 66 -451 14 -241 13 -5063 0 -5185 -23 -198 -76 -348 -160 -450 -82 -99
-184 -136 -380 -137 -144 0 -270 25 -352 69 -140 76 -229 258 -275 559 -16 99
-17 323 -21 2434 -4 2672 0 2853 63 3103 40 153 154 321 254 371 117 60 275
76 450 45z"/>
<path d="M63170 10869 c-315 -31 -658 -129 -878 -251 -160 -89 -343 -237 -433
-351 l-39 -48 -2 248 -3 248 -1535 0 -1535 0 -3 -117 -3 -118 266 0 265 0 0
-3130 0 -3130 -262 -2 -263 -3 -3 -117 -3 -118 1801 0 1800 0 0 120 0 120
-260 0 -260 0 0 2358 c0 2358 3 2589 36 2867 59 498 208 740 447 723 55 -4 63
-8 93 -42 111 -128 124 -252 124 -1147 l0 -639 1156 0 1155 0 -4 723 c-4 609
-7 737 -21 816 -57 332 -167 543 -366 706 -174 142 -382 226 -670 270 -127 19
-468 27 -600 14z"/>
<path d="M28010 9855 l0 -865 125 0 125 0 0 600 0 600 1104 0 1104 0 -1329
-3101 c-731 -1705 -1329 -3103 -1329 -3105 0 -2 1217 -4 2705 -4 l2705 0 0
860 0 860 -130 0 -130 0 0 -595 c0 -467 -3 -597 -12 -600 -7 -3 -542 -4 -1190
-3 l-1176 3 1334 3098 c734 1704 1334 3103 1334 3108 0 5 -1036 9 -2620 9
l-2620 0 0 -865z"/>
<path d="M73120 10600 l0 -120 255 0 255 0 0 -3130 0 -3130 -255 0 -255 0 0
-120 0 -120 1800 0 1801 0 -3 118 -3 117 -262 3 -263 2 0 3250 0 3250 -1535 0
-1535 0 0 -120z"/>
<path d="M2130 6134 c-133 -17 -359 -74 -548 -139 -193 -66 -351 -137 -512
-230 -80 -46 -180 -100 -222 -120 -89 -41 -160 -107 -295 -275 -192 -238 -365
-533 -443 -755 -56 -160 -71 -232 -77 -375 -4 -114 -2 -151 17 -240 37 -179
127 -389 280 -655 151 -263 241 -370 450 -538 246 -198 454 -310 779 -421 223
-77 401 -116 731 -161 226 -32 300 -93 390 -322 45 -112 110 -230 207 -373
161 -236 301 -392 430 -479 37 -25 79 -64 93 -85 33 -51 150 -107 385 -185
525 -173 1057 -258 1456 -231 202 13 314 32 729 124 473 105 601 137 720 186
57 22 125 45 152 50 185 35 1021 512 2243 1278 152 96 317 184 695 374 599
300 738 358 1045 434 513 126 1112 119 1505 -18 113 -40 259 -116 343 -179 72
-55 242 -236 313 -335 99 -139 143 -275 152 -470 8 -201 -26 -361 -113 -534
-107 -211 -259 -371 -470 -493 -162 -94 -356 -143 -615 -154 -182 -8 -285 7
-448 62 -72 25 -140 45 -150 45 -31 0 -104 54 -202 149 -139 136 -194 158
-251 102 -35 -35 -37 -68 -8 -128 27 -56 136 -156 238 -217 96 -58 285 -136
396 -165 146 -38 416 -50 661 -31 157 13 187 21 288 72 43 22 119 55 167 73
97 36 171 85 299 198 142 124 252 263 269 336 6 27 21 54 40 71 58 53 100 256
108 521 5 140 2 192 -11 257 -148 733 -929 1274 -1980 1373 -165 15 -582 6
-731 -16 -118 -17 -719 -149 -873 -191 -377 -102 -880 -326 -1402 -624 -265
-151 -511 -280 -534 -280 -25 0 -69 -24 -181 -100 -103 -69 -561 -352 -810
-500 -435 -258 -1021 -557 -1341 -683 -319 -126 -640 -194 -964 -204 -531 -16
-920 125 -1251 456 -141 141 -234 271 -326 455 -70 139 -93 206 -93 268 0 59
27 89 93 106 23 6 109 27 191 47 354 86 568 194 734 370 91 96 153 201 198
333 55 161 66 271 39 397 -32 152 -115 261 -249 325 -104 50 -180 64 -309 58
-205 -10 -393 -99 -579 -277 -231 -220 -324 -388 -397 -716 -31 -137 -65 -231
-99 -269 -27 -30 -93 -56 -143 -56 -71 0 -200 27 -332 71 -555 182 -928 585
-1048 1132 -27 122 -36 389 -19 535 30 257 137 586 256 785 104 174 355 452
519 576 355 268 1077 357 1675 206 139 -35 349 -109 443 -156 132 -67 223
-133 422 -308 90 -79 164 -124 197 -119 50 7 65 118 26 197 -29 61 -145 176
-241 240 -97 65 -460 261 -579 313 -162 70 -432 166 -513 182 -179 36 -329 47
-655 51 -179 2 -341 1 -360 -1z m1544 -2656 c69 -45 211 -183 226 -218 29 -70
-40 -258 -139 -373 -160 -190 -447 -351 -712 -402 -97 -18 -169 -19 -203 -3
-34 15 -66 83 -66 139 1 117 82 314 189 456 80 107 309 315 393 359 15 8 65
21 110 30 45 9 94 22 108 29 35 20 41 19 94 -17z"/>
<path d="M94390 5889 c-96 -10 -222 -25 -279 -34 -109 -18 -560 -151 -691
-205 -164 -68 -323 -165 -490 -299 -116 -93 -375 -349 -418 -412 -45 -67 -59
-126 -43 -181 18 -60 37 -78 83 -78 72 0 152 52 328 214 329 303 621 480 915
555 219 56 498 78 771 62 338 -21 489 -85 868 -370 379 -285 561 -537 711
-985 64 -191 88 -330 89 -506 0 -82 -5 -177 -13 -220 -39 -218 -152 -446 -322
-656 -149 -183 -321 -289 -642 -395 -390 -129 -511 -146 -587 -82 -44 36 -80
113 -139 299 -56 174 -104 270 -198 391 -147 193 -381 346 -622 405 -112 28
-323 31 -389 5 -61 -24 -142 -80 -211 -146 -87 -83 -91 -104 -91 -421 l0 -257
98 -90 c278 -257 525 -389 867 -466 143 -33 280 -83 319 -117 l31 -28 -24 -58
c-37 -90 -163 -341 -211 -419 -147 -239 -352 -435 -569 -545 -275 -137 -655
-193 -1092 -160 -406 32 -929 134 -1172 231 -292 116 -882 392 -1197 559 -96
51 -346 180 -555 286 -209 105 -416 213 -460 239 -114 66 -525 270 -691 343
-78 34 -168 67 -200 73 -36 6 -127 43 -234 94 -393 187 -965 331 -1485 375
-157 13 -587 13 -773 0 -294 -21 -383 -47 -697 -199 -530 -258 -706 -377 -862
-588 -193 -261 -306 -653 -273 -952 30 -271 126 -451 374 -696 253 -252 475
-375 779 -432 145 -28 495 -25 642 5 314 63 533 192 619 366 40 79 47 165 17
195 -40 40 -95 19 -206 -79 -288 -255 -639 -340 -1050 -255 -369 76 -776 360
-917 639 -62 122 -84 269 -67 445 30 320 137 526 403 778 266 253 510 327
1066 326 271 0 469 -12 720 -44 205 -26 317 -53 420 -101 47 -21 130 -58 185
-80 257 -105 1337 -646 1643 -822 359 -207 1057 -562 1177 -598 39 -11 176
-64 305 -116 129 -52 316 -127 415 -167 447 -180 860 -289 1270 -336 253 -30
729 -11 964 37 389 80 975 341 1321 588 243 173 443 467 568 837 80 234 86
245 141 263 77 25 199 54 408 96 286 59 513 116 617 157 243 95 571 290 792
470 142 117 307 289 373 389 118 179 228 456 278 694 45 217 32 511 -33 736
-27 94 -104 265 -157 349 -105 168 -326 430 -461 547 -275 239 -522 334 -1276
492 -396 83 -472 88 -780 55z m-655 -2809 c132 -30 200 -66 295 -156 131 -126
251 -322 286 -469 15 -67 18 -153 5 -173 -14 -23 -77 -30 -185 -22 -124 10
-168 21 -262 66 -39 18 -113 45 -165 59 -159 44 -223 79 -319 175 -64 63 -95
104 -123 160 -102 203 -56 341 126 380 62 13 239 3 342 -20z"/>
</g>
</svg>
